#!OML:ASF I:\Random Stuff\random\construction\7_22_03\Session 2\subj1.ASF
:FULLY-SPECIFIED
:DEGREES
1958
root -9.25889 17.5355 -4.93615 -333.151 84.2014 -341.781
lowerback 6.65862 -2.22583 -3.89484
upperback -0.521274 -3.19093 1.99632
thorax -3.94837 -1.47893 4.5748
lowerneck -17.2516 -9.33175 -9.27794
upperneck 29.9247 -14.1139 11.8739
head 14.8922 -5.39405 3.8677
rclavicle -2.66371e-014 9.93923e-015
rhumerus -31.443 4.79256 -70.3337
rradius 58.9896
rwrist -15.7049
rhand -41.5699 33.8628
rfingers 7.12502
rthumb -14.4808 4.38805
lclavicle -2.66371e-014 9.93923e-015
lhumerus -33.1045 -8.09796 91.3423
lradius 30.0901
lwrist 23.9574
lhand -23.4137 63.1957
lfingers 7.12502
lthumb 3.04357 266.846
rfemur -19.0435 8.52084 5.72015
rtibia 18.664
rfoot -7.44409 -6.686
rtoes -35.8107
lfemur -5.54504 -10.8331 -15.3231
ltibia 14.6251
lfoot -17.8652 6.45426
ltoes -19.9189
1959
root -9.22575 17.5424 -4.75831 -333.428 84.8948 -341.872
lowerback 6.72618 -2.18135 -3.08645
upperback -0.389544 -3.05816 2.13092
thorax -3.89674 -1.43053 4.24655
lowerneck -17.1826 -9.57817 -9.58047
upperneck 29.9172 -14.474 12.1512
head 14.9879 -5.54319 3.96272
rclavicle 3.8266e-014 -2.66371e-014
rhumerus -29.943 5.02954 -70.1346
rradius 58.9473
rwrist -14.5725
rhand -41.2864 33.8239
rfingers 7.12502
rthumb -14.2076 4.32981
lclavicle 3.8266e-014 -2.66371e-014
lhumerus -32.6562 -6.66444 90.1798
lradius 29.7056
lwrist 24.0815
lhand -23.246 63.4148
lfingers 7.12502
lthumb 3.20558 266.63
rfemur -18.7574 8.33666 6.75822
rtibia 19.1847
rfoot -7.69646 -6.83783
rtoes -34.9715
lfemur -5.1956 -11.4269 -14.4378
ltibia 14.4158
lfoot -17.3922 6.6408
ltoes -19.9181
1960
root -9.19772 17.5508 -4.59135 -335.634 85.5459 -343.897
lowerback 6.83528 -2.08899 -1.99938
upperback -0.229427 -2.83723 2.27353
thorax -3.85674 -1.3417 3.76231
lowerneck -16.9502 -9.79762 -9.91265
upperneck 29.6716 -14.7919 12.5007
head 14.9448 -5.68528 4.09725
rclavicle 4.90998e-014 -9.54166e-015
rhumerus -28.4343 5.04959 -69.9051
rradius 58.6636
rwrist -13.2081
rhand -41.3107 33.8196
rfingers 7.12502
rthumb -14.231 4.32718
lclavicle 4.90998e-014 -9.54166e-015
lhumerus -32.2467 -5.17276 89.1365
lradius 29.5628
lwrist 23.5906
lhand -23.2997 63.2053
lfingers 7.12502
lthumb 3.15363 266.838
rfemur -18.4247 7.95747 7.88473
rtibia 19.5681
rfoot -8.14788 -6.67066
rtoes -33.2224
lfemur -5.07683 -11.744 -13.4669
ltibia 14.6155
lfoot -16.9631 6.68536
ltoes -20.0513
1961
root -9.17317 17.5651 -4.43042 -338.487 86.127 -346.668
lowerback 6.93207 -2.01735 -0.928526
upperback -0.128265 -2.64136 2.45453
thorax -3.86077 -1.2614 3.33045
lowerneck -16.6319 -9.94868 -10.1724
upperneck 29.3901 -14.9868 12.7192
head 14.8264 -5.79022 4.19125
rclavicle -1.91827e-014 1.11319e-014
rhumerus -26.8716 5.14656 -69.7333
rradius 58.1129
rwrist -11.7902
rhand -41.5078 33.9552
rfingers 7.12502
rthumb -14.421 4.47621
lclavicle -1.91827e-014 1.11319e-014
lhumerus -32.2129 -3.74919 88.2958
lradius 29.9687
lwrist 23.0014
lhand -23.659 62.9547
lfingers 7.12502
lthumb 2.80667 267.084
rfemur -18.2039 7.54654 8.96446
rtibia 19.8973
rfoot -8.60025 -6.57248
rtoes -32.1145
lfemur -5.21868 -11.8307 -12.4914
ltibia 15.0048
lfoot -16.3237 6.65872
ltoes -21.0331
1962
root -9.15028 17.583 -4.26935 -338.558 86.6246 -346.749
lowerback 6.94602 -1.97125 -0.196901
upperback -0.0662376 -2.50831 2.61853
thorax -3.83675 -1.20588 3.07515
lowerneck -16.3492 -10.0438 -10.2512
upperneck 29.1638 -15.1034 12.7749
head 14.693 -5.85915 4.20407
rclavicle -1.19271e-015 0
rhumerus -25.3086 5.38009 -69.6386
rradius 57.4382
rwrist -10.4253
rhand -41.5634 34.4095
rfingers 7.12502
rthumb -14.4745 4.93435
lclavicle -1.19271e-015 0
lhumerus -32.4855 -2.63814 87.6927
lradius 30.9175
lwrist 22.7332
lhand -24.2611 62.7395
lfingers 7.12502
lthumb 2.22516 267.292
rfemur -18.077 7.18735 9.7763
rtibia 20.1538
rfoot -8.99054 -6.60101
rtoes -31.4354
lfemur -5.52991 -11.8708 -11.7245
ltibia 15.4572
lfoot -15.429 6.5071
ltoes -21.7002
1963
root -9.12659 17.6047 -4.1072 -331.642 87.0746 -339.933
lowerback 6.7554 -1.90047 0.161776
upperback 0.0371833 -2.38404 2.68585
thorax -3.64092 -1.15125 2.91995
lowerneck -16.2141 -10.2095 -10.2612
upperneck 28.9914 -15.3382 12.8156
head 14.6282 -5.96376 4.17127
rclavicle 3.97569e-015 -1.43125e-014
rhumerus -23.735 5.49231 -69.5175
rradius 56.6423
rwrist -9.16801
rhand -41.5556 34.8966
rfingers 7.12502
rthumb -14.4671 5.42088
lclavicle 3.97569e-015 -1.43125e-014
lhumerus -32.5412 -1.92404 87.3521
lradius 31.8086
lwrist 22.7547
lhand -25.0591 62.29
lfingers 7.12502
lthumb 1.4545 267.735
rfemur -18.005 6.75135 10.1895
rtibia 20.3098
rfoot -9.32257 -6.67592
rtoes -30.6979
lfemur -5.97862 -11.7421 -11.3148
ltibia 15.9087
lfoot -14.2227 6.11047
ltoes -21.9304
1964
root -9.10084 17.6296 -3.94283 -319.271 87.4214 -327.686
lowerback 6.46 -1.79398 0.324676
upperback 0.174628 -2.23311 2.74733
thorax -3.3439 -1.0806 2.86203
lowerneck -16.1987 -10.4859 -10.3932
upperneck 28.9357 -15.7172 12.885
head 14.6824 -6.12908 4.14008
rclavicle 2.20651e-014 -2.78299e-014
rhumerus -22.1428 5.43844 -69.313
rradius 55.6377
rwrist -8.05109
rhand -41.6191 35.2556
rfingers 7.12502
rthumb -14.5282 5.78433
lclavicle 2.20651e-014 -2.78299e-014
lhumerus -32.4727 -1.66887 87.3351
lradius 32.6312
lwrist 23.1799
lhand -25.8632 61.8943
lfingers 7.12502
lthumb 0.677862 268.127
rfemur -17.9359 6.38267 10.4357
rtibia 20.423
rfoot -9.5619 -6.89392
rtoes -29.7978
lfemur -6.43181 -11.4428 -11.0663
ltibia 16.2663
lfoot -12.804 5.63591
ltoes -22.1446
1965
root -9.07811 17.6544 -3.77629 -304.662 87.6709 -313.132
lowerback 6.32329 -1.66646 0.478363
upperback 0.285115 -2.05072 2.83594
thorax -3.16358 -0.991905 2.84308
lowerneck -16.1266 -10.7724 -10.5408
upperneck 28.9057 -16.1111 12.9544
head 14.7406 -6.30283 4.11078
rclavicle -8.74653e-015 1.19271e-014
rhumerus -20.6667 5.24531 -69.1303
rradius 54.425
rwrist -7.12259
rhand -41.6663 35.6656
rfingers 7.12502
rthumb -14.5736 6.19761
lclavicle -8.74653e-015 1.19271e-014
lhumerus -32.4853 -1.9624 87.5837
lradius 33.5203
lwrist 23.9556
lhand -26.56 61.6619
lfingers 7.12502
lthumb 0.00483161 268.358
rfemur -17.7505 6.44623 10.7112
rtibia 20.4812
rfoot -9.66695 -7.53957
rtoes -28.6227
lfemur -6.80908 -10.9965 -10.7715
ltibia 16.5769
lfoot -11.2523 5.10182
ltoes -21.7445
1966
root -9.06238 17.6868 -3.61389 -284.361 87.6491 -292.916
lowerback 6.33899 -1.53678 0.541441
upperback 0.278441 -1.87132 2.84966
thorax -3.18889 -0.902728 2.80682
lowerneck -15.9169 -11.0207 -10.6486
upperneck 28.8733 -16.4841 13.0852
head 14.7687 -6.45977 4.11103
rclavicle 1.19271e-015 9.54166e-015
rhumerus -19.4495 4.94012 -69.0242
rradius 53.0637
rwrist -6.45761
rhand -41.5836 35.8614
rfingers 7.12502
rthumb -14.4939 6.38765
lclavicle 1.19271e-015 9.54166e-015
lhumerus -32.4947 -2.7082 87.9992
lradius 34.2854
lwrist 24.8127
lhand -27.0726 61.5753
lfingers 7.12502
lthumb -0.490165 268.446
rfemur -17.5132 6.5778 10.7991
rtibia 20.4211
rfoot -9.71137 -8.30765
rtoes -27.1502
lfemur -7.36963 -10.5368 -10.6508
ltibia 16.9642
lfoot -9.52849 4.54028
ltoes -20.8529
1967
root -9.0501 17.7237 -3.46047 -266.122 87.2185 -274.795
lowerback 6.36883 -1.41364 0.503832
upperback 0.228221 -1.70983 2.81849
thorax -3.26443 -0.821569 2.78352
lowerneck -15.7128 -11.233 -10.6937
upperneck 28.8609 -16.8084 13.1723
head 14.7876 -6.59319 4.09392
rclavicle -3.37934e-015 2.8625e-014
rhumerus -18.3827 4.61291 -68.9349
rradius 51.6409
rwrist -5.93528
rhand -41.6819 36.2165
rfingers 7.12502
rthumb -14.5887 6.74953
lclavicle -3.37934e-015 2.8625e-014
lhumerus -32.4902 -3.72528 88.5572
lradius 34.9701
lwrist 25.8685
lhand -27.3318 61.72
lfingers 7.12502
lthumb -0.74054 268.302
rfemur -17.2665 6.49683 10.7191
rtibia 20.2434
rfoot -9.70913 -8.89865
rtoes -26.0527
lfemur -8.06843 -10.1828 -10.7746
ltibia 17.4547
lfoot -7.86455 4.07298
ltoes -19.9533
